<svg width="52" height="52" viewBox="0 0 52 52" fill="none" xmlns="http://www.w3.org/2000/svg">
<path d="M26 2.16669L17.3334 10.8334H23.8334V30.3334H28.1667V10.8334H34.6667M39 49.8334H13C10.595 49.8334 8.66669 47.8834 8.66669 45.5V19.5C8.66669 18.3507 9.12323 17.2485 9.93589 16.4359C10.7485 15.6232 11.8507 15.1667 13 15.1667H19.5V19.5H13V45.5H39V19.5H32.5V15.1667H39C40.1493 15.1667 41.2515 15.6232 42.0642 16.4359C42.8768 17.2485 43.3334 18.3507 43.3334 19.5V45.5C43.3334 46.6493 42.8768 47.7515 42.0642 48.5642C41.2515 49.3768 40.1493 49.8334 39 49.8334Z" fill="white"/>
</svg>
