<svg width="52" height="52" viewBox="0 0 52 52" fill="none" xmlns="http://www.w3.org/2000/svg">
<path d="M26 2.16663L17.3333 10.8333H23.8333V30.3333H28.1666V10.8333H34.6666M39 49.8333H13C10.595 49.8333 8.66663 47.8833 8.66663 45.5V19.5C8.66663 18.3507 9.12317 17.2485 9.93583 16.4358C10.7485 15.6232 11.8507 15.1666 13 15.1666H19.5V19.5H13V45.5H39V19.5H32.5V15.1666H39C40.1492 15.1666 41.2514 15.6232 42.0641 16.4358C42.8767 17.2485 43.3333 18.3507 43.3333 19.5V45.5C43.3333 46.6492 42.8767 47.7514 42.0641 48.5641C41.2514 49.3767 40.1492 49.8333 39 49.8333Z" fill="#202124"/>
</svg>
