<svg width="52" height="52" viewBox="0 0 52 52" fill="none" xmlns="http://www.w3.org/2000/svg">
<path d="M23.8333 19.5H28.1666V15.1667H23.8333M26 43.3333C16.445 43.3333 8.66665 35.555 8.66665 26C8.66665 16.445 16.445 8.66668 26 8.66668C35.555 8.66668 43.3333 16.445 43.3333 26C43.3333 35.555 35.555 43.3333 26 43.3333ZM26 4.33334C23.1547 4.33334 20.3372 4.89377 17.7085 5.98262C15.0798 7.07147 12.6913 8.66743 10.6793 10.6794C6.61604 14.7427 4.33331 20.2537 4.33331 26C4.33331 31.7464 6.61604 37.2574 10.6793 41.3207C12.6913 43.3326 15.0798 44.9285 17.7085 46.0174C20.3372 47.1063 23.1547 47.6667 26 47.6667C31.7463 47.6667 37.2573 45.3839 41.3206 41.3207C45.3839 37.2574 47.6666 31.7464 47.6666 26C47.6666 23.1547 47.1062 20.3373 46.0174 17.7085C44.9285 15.0798 43.3326 12.6913 41.3206 10.6794C39.3087 8.66743 36.9202 7.07147 34.2915 5.98262C31.6627 4.89377 28.8453 4.33334 26 4.33334ZM23.8333 36.8333H28.1666V23.8333H23.8333V36.8333Z" fill="#202124"/>
</svg>
