<svg width="52" height="52" viewBox="0 0 52 52" fill="none" xmlns="http://www.w3.org/2000/svg">
<path d="M23.8333 19.5H28.1666V15.1666H23.8333M26 43.3333C16.445 43.3333 8.66665 35.555 8.66665 26C8.66665 16.445 16.445 8.66665 26 8.66665C35.555 8.66665 43.3333 16.445 43.3333 26C43.3333 35.555 35.555 43.3333 26 43.3333ZM26 4.33331C23.1547 4.33331 20.3372 4.89374 17.7085 5.98259C15.0798 7.07144 12.6913 8.6674 10.6793 10.6793C6.61604 14.7426 4.33331 20.2536 4.33331 26C4.33331 31.7463 6.61604 37.2573 10.6793 41.3206C12.6913 43.3326 15.0798 44.9285 17.7085 46.0174C20.3372 47.1062 23.1547 47.6666 26 47.6666C31.7463 47.6666 37.2573 45.3839 41.3206 41.3206C45.3839 37.2573 47.6666 31.7463 47.6666 26C47.6666 23.1547 47.1062 20.3372 46.0174 17.7085C44.9285 15.0798 43.3326 12.6913 41.3206 10.6793C39.3087 8.6674 36.9202 7.07144 34.2915 5.98259C31.6627 4.89374 28.8453 4.33331 26 4.33331ZM23.8333 36.8333H28.1666V23.8333H23.8333V36.8333Z" fill="white"/>
</svg>
