<svg width="52" height="52" viewBox="0 0 52 52" fill="none" xmlns="http://www.w3.org/2000/svg">
  <path d="M6.5 0H45.5C49.0899 0 52 2.91015 52 6.5V45.5C52 49.0899 49.0899 52 45.5 52H6.5C2.91015 52 0 49.0899 0 45.5V6.5C0 2.91015 2.91015 0 6.5 0Z" fill="#019EDB"/>
  
  <path d="M35.6812 17.3187C33.325 14.9625 30.0912 13.5 26.5 13.5C19.3175 13.5 13.5162 19.3175 13.5162 26.5C13.5162 33.6825 19.3175 39.5 26.5 39.5C32.5612 39.5 37.615 35.3563 39.0612 29.75H35.6812C34.3487 33.5362 30.7412 36.25 26.5 36.25C21.1212 36.25 16.75 31.8787 16.75 26.5C16.75 21.1213 21.1212 16.75 26.5 16.75C29.1975 16.75 31.6025 17.8713 33.3575 19.6425L28.125 24.875H39.5V13.5L35.6812 17.3187Z" fill="white"/>
</svg>