<svg width="52" height="52" viewBox="0 0 52 52" fill="none" xmlns="http://www.w3.org/2000/svg">
<g clip-path="url(#clip0_49856_2208)">
<path d="M38.2417 13.7583C35.1 10.6166 30.7884 8.66663 26 8.66663C16.4234 8.66663 8.68835 16.4233 8.68835 26C8.68835 35.5766 16.4234 43.3333 26 43.3333C34.0817 43.3333 40.82 37.8083 42.7484 30.3333H38.2417C36.465 35.3816 31.655 39 26 39C18.8284 39 13 33.1716 13 26C13 18.8283 18.8284 13 26 13C29.5967 13 32.8034 14.495 35.1434 16.8566L28.1667 23.8333H43.3334V8.66663L38.2417 13.7583Z" fill="#202124"/>
</g>
<defs>
<clipPath id="clip0_49856_2208">
<rect width="52" height="52" fill="white"/>
</clipPath>
</defs>
</svg>
