<svg width="52" height="52" viewBox="0 0 52 52" fill="none" xmlns="http://www.w3.org/2000/svg">
<g clip-path="url(#clip0_50497_122)">
<path d="M38.2417 13.7584C35.1 10.6167 30.7883 8.66669 26 8.66669C16.4233 8.66669 8.68832 16.4234 8.68832 26C8.68832 35.5767 16.4233 43.3334 26 43.3334C34.0817 43.3334 40.82 37.8084 42.7483 30.3334H38.2417C36.465 35.3817 31.655 39 26 39C18.8283 39 13 33.1717 13 26C13 18.8284 18.8283 13 26 13C29.5967 13 32.8033 14.495 35.1433 16.8567L28.1667 23.8334H43.3333V8.66669L38.2417 13.7584Z" fill="white"/>
</g>
<defs>
<clipPath id="clip0_50497_122">
<rect width="52" height="52" fill="white"/>
</clipPath>
</defs>
</svg>
